<svg width="32" height="32" viewBox="0 0 32 32" fill="none" xmlns="http://www.w3.org/2000/svg">
<g clip-path="url(#clip0_2407_35)">
<path d="M23.5998 0.357375L7.25773 2.07499C5.3237 2.27827 3.9298 4.09799 4.14437 6.13946L6.47541 28.3179C6.68998 30.3594 8.43176 31.8495 10.3658 31.6462L26.7078 29.9286C28.6419 29.7254 30.0358 27.9056 29.8212 25.8642L27.4902 3.68572C27.2756 1.64425 25.5338 0.1541 23.5998 0.357375Z" fill="#5E1753"/>
<path d="M24.4617 10.8555L17.4961 5.37354C17.3053 5.22344 17.3064 4.92434 17.501 4.76064C19.3144 3.23572 21.9387 3.08837 23.7934 4.54701C25.6482 6.00674 26.1175 8.58953 25.0572 10.7074C24.9434 10.9346 24.6535 11.0055 24.4617 10.8555Z" fill="white"/>
<path d="M16.7848 5.87871L24.1355 11.6636C24.2418 11.7474 24.2601 11.9013 24.1762 12.0076L24.1416 12.0516C23.1152 13.3525 21.2285 13.5763 19.9263 12.5514L16.9051 10.1737C15.603 9.14894 15.3795 7.26446 16.4058 5.96357L16.4405 5.9196C16.5244 5.81333 16.6784 5.795 16.7848 5.87871Z" fill="white"/>
<path d="M15.5933 10.0727C15.8023 10.3679 16.054 10.6393 16.3523 10.874L19.3735 13.2517C19.6719 13.4865 19.995 13.6686 20.3311 13.8014C20.4521 13.8491 20.4808 14.0073 20.3899 14.1011L11.977 22.8031C11.5691 23.2246 10.9083 23.2697 10.4473 22.907L10.2688 22.7665L8.91862 24.4779C8.39244 25.1448 8.50742 26.1144 9.175 26.6398L10.5676 27.7358C11.2352 28.2612 12.206 28.1461 12.7322 27.4791C13.665 26.2967 15.3868 26.0925 16.5704 27.0239L18.188 28.297C18.446 28.5 18.4904 28.8746 18.2871 29.1323C18.0837 29.39 17.7087 29.4345 17.4508 29.2315L15.8332 27.9584C15.1656 27.433 14.1948 27.5482 13.6686 28.2151C12.7358 29.3975 11.014 29.6017 9.83038 28.6703L8.43776 27.5743C7.25422 26.6428 7.05028 24.9231 7.98313 23.7406L9.33329 22.0293L9.03985 21.7983C8.57889 21.4355 8.46829 20.7832 8.78321 20.2886L15.2865 10.0837C15.3567 9.97464 15.5175 9.96554 15.592 10.0707L15.5933 10.0727Z" fill="white"/>
</g>
<defs>
<clipPath id="clip0_2407_35">
<rect width="32" height="32" fill="white"/>
</clipPath>
</defs>
</svg>
